<svg width="256" height="256" viewBox="0 0 250 250" fill="none" xmlns="http://www.w3.org/2000/svg"><g clip-path="url(#a)"><g clip-path="url(#b)"><path fill="#000" d="M0 0h250v250H0z"/><path stroke="#3E3E3E" stroke-width=".3" d="M72.45 4.447h8.708v8.708H72.45zm0 26.125h8.708v8.708H72.45zm0 26.125h8.708v8.708H72.45zm0 26.126h8.708v8.708H72.45zm0 26.125h8.708v8.708H72.45zm0 26.125h8.708v8.708H72.45zm0 26.125h8.708v8.708H72.45z"/><path stroke="#3E3E3E" stroke-width=".3" d="M72.45 13.155h8.708v8.708H72.45zm0 26.125h8.708v8.708H72.45zm0 26.126h8.708v8.708H72.45zm0 26.125h8.708v8.708H72.45zm0 26.125h8.708v8.708H72.45zm0 26.125h8.708v8.708H72.45zm0 26.126h8.708v8.708H72.45zm0-174.169h8.708v8.708H72.45zm0 26.125h8.708v8.708H72.45zm0 26.126h8.708v8.708H72.45zm0 26.125h8.708v8.708H72.45zm0 26.126h8.708v8.708H72.45zm0 26.125h8.708v8.708H72.45zm0 26.125h8.708v8.708H72.45zm0 26.125h8.708v8.708H72.45zM37.616 4.447h8.708v8.708h-8.708zm0 26.125h8.708v8.708h-8.708zm0 26.125h8.708v8.708h-8.708zm0 26.126h8.708v8.708h-8.708zm0 26.125h8.708v8.708h-8.708zm0 26.125h8.708v8.708h-8.708zm0 26.125h8.708v8.708h-8.708z"/><path stroke="#3E3E3E" stroke-width=".3" d="M37.616 13.155h8.708v8.708h-8.708zm0 26.125h8.708v8.708h-8.708zm0 26.126h8.708v8.708h-8.708zm0 26.125h8.708v8.708h-8.708zm0 26.125h8.708v8.708h-8.708zm0 26.125h8.708v8.708h-8.708zm0 26.126h8.708v8.708h-8.708zm0-174.169h8.708v8.708h-8.708zm0 26.125h8.708v8.708h-8.708zm0 26.126h8.708v8.708h-8.708zm0 26.125h8.708v8.708h-8.708zm0 26.126h8.708v8.708h-8.708zm0 26.125h8.708v8.708h-8.708zm0 26.125h8.708v8.708h-8.708zm0 26.125h8.708v8.708h-8.708zM2.783 4.447h8.708v8.708H2.783zm0 26.125h8.708v8.708H2.783zm0 26.125h8.708v8.708H2.783zm0 26.126h8.708v8.708H2.783zm0 26.125h8.708v8.708H2.783zm0 26.125h8.708v8.708H2.783zm0 26.125h8.708v8.708H2.783z"/><path stroke="#3E3E3E" stroke-width=".3" d="M2.783 13.155h8.708v8.708H2.783zm0 26.125h8.708v8.708H2.783zm0 26.126h8.708v8.708H2.783zm0 26.125h8.708v8.708H2.783zm0 26.125h8.708v8.708H2.783zm0 26.125h8.708v8.708H2.783zm0 26.126h8.708v8.708H2.783zm0-174.169h8.708v8.708H2.783zm0 26.125h8.708v8.708H2.783zm0 26.126h8.708v8.708H2.783zm0 26.125h8.708v8.708H2.783zm0 26.126h8.708v8.708H2.783zm0 26.125h8.708v8.708H2.783zm0 26.125h8.708v8.708H2.783zm0 26.125h8.708v8.708H2.783zM81.158 4.447h8.708v8.708h-8.708zm0 26.125h8.708v8.708h-8.708zm0 26.125h8.708v8.708h-8.708zm0 26.126h8.708v8.708h-8.708zm0 26.125h8.708v8.708h-8.708zm0 26.125h8.708v8.708h-8.708zm0 26.125h8.708v8.708h-8.708z"/><path stroke="#3E3E3E" stroke-width=".3" d="M81.158 13.155h8.708v8.708h-8.708zm0 26.125h8.708v8.708h-8.708zm0 26.126h8.708v8.708h-8.708zm0 26.125h8.708v8.708h-8.708zm0 26.125h8.708v8.708h-8.708zm0 26.125h8.708v8.708h-8.708zm0 26.126h8.708v8.708h-8.708zm0-174.169h8.708v8.708h-8.708zm0 26.125h8.708v8.708h-8.708zm0 26.126h8.708v8.708h-8.708zm0 26.125h8.708v8.708h-8.708zm0 26.126h8.708v8.708h-8.708zm0 26.125h8.708v8.708h-8.708zm0 26.125h8.708v8.708h-8.708zm0 26.125h8.708v8.708h-8.708zM46.325 4.447h8.708v8.708h-8.708zm0 26.125h8.708v8.708h-8.708zm0 26.125h8.708v8.708h-8.708zm0 26.126h8.708v8.708h-8.708zm0 26.125h8.708v8.708h-8.708zm0 26.125h8.708v8.708h-8.708zm0 26.125h8.708v8.708h-8.708z"/><path stroke="#3E3E3E" stroke-width=".3" d="M46.325 13.155h8.708v8.708h-8.708zm0 26.125h8.708v8.708h-8.708zm0 26.126h8.708v8.708h-8.708zm0 26.125h8.708v8.708h-8.708zm0 26.125h8.708v8.708h-8.708zm0 26.125h8.708v8.708h-8.708zm0 26.126h8.708v8.708h-8.708zm0-174.169h8.708v8.708h-8.708zm0 26.125h8.708v8.708h-8.708zm0 26.126h8.708v8.708h-8.708zm0 26.125h8.708v8.708h-8.708zm0 26.126h8.708v8.708h-8.708zm0 26.125h8.708v8.708h-8.708zm0 26.125h8.708v8.708h-8.708zm0 26.125h8.708v8.708h-8.708zM11.491 4.447h8.708v8.708h-8.708zm0 26.125h8.708v8.708h-8.708zm0 26.125h8.708v8.708h-8.708zm0 26.126h8.708v8.708h-8.708zm0 26.125h8.708v8.708h-8.708zm0 26.125h8.708v8.708h-8.708zm0 26.125h8.708v8.708h-8.708z"/><path stroke="#3E3E3E" stroke-width=".3" d="M11.491 13.155h8.708v8.708h-8.708zm0 26.125h8.708v8.708h-8.708zm0 26.126h8.708v8.708h-8.708zm0 26.125h8.708v8.708h-8.708zm0 26.125h8.708v8.708h-8.708zm0 26.125h8.708v8.708h-8.708zm0 26.126h8.708v8.708h-8.708zm0-174.169h8.708v8.708h-8.708zm0 26.125h8.708v8.708h-8.708zm0 26.126h8.708v8.708h-8.708zm0 26.125h8.708v8.708h-8.708zm0 26.126h8.708v8.708h-8.708zm0 26.125h8.708v8.708h-8.708zm0 26.125h8.708v8.708h-8.708zm0 26.125h8.708v8.708h-8.708zM89.867 4.447h8.708v8.708h-8.708zm0 26.125h8.708v8.708h-8.708zm0 26.125h8.708v8.708h-8.708zm0 26.126h8.708v8.708h-8.708zm0 26.125h8.708v8.708h-8.708zm0 26.125h8.708v8.708h-8.708zm0 26.125h8.708v8.708h-8.708z"/><path stroke="#3E3E3E" stroke-width=".3" d="M89.867 13.155h8.708v8.708h-8.708zm0 26.125h8.708v8.708h-8.708zm0 26.126h8.708v8.708h-8.708zm0 26.125h8.708v8.708h-8.708zm0 26.125h8.708v8.708h-8.708zm0 26.125h8.708v8.708h-8.708zm0 26.126h8.708v8.708h-8.708zm0-174.169h8.708v8.708h-8.708zm0 26.125h8.708v8.708h-8.708zm0 26.126h8.708v8.708h-8.708zm0 26.125h8.708v8.708h-8.708zm0 26.126h8.708v8.708h-8.708zm0 26.125h8.708v8.708h-8.708zm0 26.125h8.708v8.708h-8.708zm0 26.125h8.708v8.708h-8.708zM55.033 4.447h8.708v8.708h-8.708zm0 26.125h8.708v8.708h-8.708zm0 26.125h8.708v8.708h-8.708zm0 26.126h8.708v8.708h-8.708zm0 26.125h8.708v8.708h-8.708zm0 26.125h8.708v8.708h-8.708zm0 26.125h8.708v8.708h-8.708z"/><path stroke="#3E3E3E" stroke-width=".3" d="M55.033 13.155h8.708v8.708h-8.708zm0 26.125h8.708v8.708h-8.708zm0 26.126h8.708v8.708h-8.708zm0 26.125h8.708v8.708h-8.708zm0 26.125h8.708v8.708h-8.708zm0 26.125h8.708v8.708h-8.708zm0 26.126h8.708v8.708h-8.708zm0-174.169h8.708v8.708h-8.708zm0 26.125h8.708v8.708h-8.708zm0 26.126h8.708v8.708h-8.708zm0 26.125h8.708v8.708h-8.708zm0 26.126h8.708v8.708h-8.708zm0 26.125h8.708v8.708h-8.708zm0 26.125h8.708v8.708h-8.708zm0 26.125h8.708v8.708h-8.708zM20.199 4.447h8.708v8.708h-8.708zm0 26.125h8.708v8.708h-8.708zm0 26.125h8.708v8.708h-8.708zm0 26.126h8.708v8.708h-8.708zm0 26.125h8.708v8.708h-8.708zm0 26.125h8.708v8.708h-8.708zm0 26.125h8.708v8.708h-8.708z"/><path stroke="#3E3E3E" stroke-width=".3" d="M20.199 13.155h8.708v8.708h-8.708zm0 26.125h8.708v8.708h-8.708zm0 26.126h8.708v8.708h-8.708zm0 26.125h8.708v8.708h-8.708zm0 26.125h8.708v8.708h-8.708zm0 26.125h8.708v8.708h-8.708zm0 26.126h8.708v8.708h-8.708zm0-174.169h8.708v8.708h-8.708zm0 26.125h8.708v8.708h-8.708zm0 26.126h8.708v8.708h-8.708zm0 26.125h8.708v8.708h-8.708zm0 26.126h8.708v8.708h-8.708zm0 26.125h8.708v8.708h-8.708zm0 26.125h8.708v8.708h-8.708zm0 26.125h8.708v8.708h-8.708zM98.575 4.447h8.708v8.708h-8.708zm0 26.125h8.708v8.708h-8.708zm0 26.125h8.708v8.708h-8.708zm0 26.126h8.708v8.708h-8.708zm0 26.125h8.708v8.708h-8.708zm0 26.125h8.708v8.708h-8.708zm0 26.125h8.708v8.708h-8.708z"/><path stroke="#3E3E3E" stroke-width=".3" d="M98.575 13.155h8.708v8.708h-8.708zm0 26.125h8.708v8.708h-8.708z"/><path fill="#252525" d="M98.575 65.406h8.708v8.708h-8.708z"/><path stroke="#3E3E3E" stroke-width=".3" d="M98.575 65.406h8.708v8.708h-8.708zm0 26.125h8.708v8.708h-8.708zm0 26.125h8.708v8.708h-8.708zm0 26.125h8.708v8.708h-8.708zm0 26.126h8.708v8.708h-8.708zm0-174.169h8.708v8.708h-8.708zm0 26.125h8.708v8.708h-8.708zm0 26.126h8.708v8.708h-8.708zm0 26.125h8.708v8.708h-8.708zm0 26.126h8.708v8.708h-8.708zm0 26.125h8.708v8.708h-8.708zm0 26.125h8.708v8.708h-8.708zm0 26.125h8.708v8.708h-8.708zM63.742 4.447h8.708v8.708h-8.708zm0 26.125h8.708v8.708h-8.708zm0 26.125h8.708v8.708h-8.708zm0 26.126h8.708v8.708h-8.708zm0 26.125h8.708v8.708h-8.708zm0 26.125h8.708v8.708h-8.708zm0 26.125h8.708v8.708h-8.708z"/><path stroke="#3E3E3E" stroke-width=".3" d="M63.742 13.155h8.708v8.708h-8.708zm0 26.125h8.708v8.708h-8.708z"/><path fill="#252525" d="M63.742 65.406h8.708v8.708h-8.708z"/><path stroke="#3E3E3E" stroke-width=".3" d="M63.742 65.406h8.708v8.708h-8.708zm0 26.125h8.708v8.708h-8.708zm0 26.125h8.708v8.708h-8.708zm0 26.125h8.708v8.708h-8.708zm0 26.126h8.708v8.708h-8.708zm0-174.169h8.708v8.708h-8.708zm0 26.125h8.708v8.708h-8.708zm0 26.126h8.708v8.708h-8.708zm0 26.125h8.708v8.708h-8.708zm0 26.126h8.708v8.708h-8.708zm0 26.125h8.708v8.708h-8.708zm0 26.125h8.708v8.708h-8.708zm0 26.125h8.708v8.708h-8.708zM28.908 4.447h8.708v8.708h-8.708zm0 26.125h8.708v8.708h-8.708zm0 26.125h8.708v8.708h-8.708zm0 26.126h8.708v8.708h-8.708zm0 26.125h8.708v8.708h-8.708zm0 26.125h8.708v8.708h-8.708zm0 26.125h8.708v8.708h-8.708z"/><path stroke="#3E3E3E" stroke-width=".3" d="M28.908 13.155h8.708v8.708h-8.708zm0 26.125h8.708v8.708h-8.708z"/><path fill="#252525" d="M28.908 65.406h8.708v8.708h-8.708z"/><path stroke="#3E3E3E" stroke-width=".3" d="M28.908 65.406h8.708v8.708h-8.708zm0 26.125h8.708v8.708h-8.708zm0 26.125h8.708v8.708h-8.708zm0 26.125h8.708v8.708h-8.708zm0 26.126h8.708v8.708h-8.708zm0-174.169h8.708v8.708h-8.708zm0 26.125h8.708v8.708h-8.708zm0 26.126h8.708v8.708h-8.708zm0 26.125h8.708v8.708h-8.708zm0 26.126h8.708v8.708h-8.708zm0 26.125h8.708v8.708h-8.708zm0 26.125h8.708v8.708h-8.708zm0 26.125h8.708v8.708h-8.708zM-5.926 4.447h8.708v8.708h-8.708zm0 26.125h8.708v8.708h-8.708zm0 26.125h8.708v8.708h-8.708zm0 26.126h8.708v8.708h-8.708zm0 26.125h8.708v8.708h-8.708zm0 26.125h8.708v8.708h-8.708zm0 26.125h8.708v8.708h-8.708z"/><path stroke="#3E3E3E" stroke-width=".3" d="M-5.926 13.155h8.708v8.708h-8.708zm0 26.125h8.708v8.708h-8.708z"/><path fill="#252525" d="M-5.926 65.406h8.708v8.708h-8.708z"/><path stroke="#3E3E3E" stroke-width=".3" d="M-5.926 65.406h8.708v8.708h-8.708zm0 26.125h8.708v8.708h-8.708zm0 26.125h8.708v8.708h-8.708zm0 26.125h8.708v8.708h-8.708zm0 26.126h8.708v8.708h-8.708zm0-174.169h8.708v8.708h-8.708zm0 26.125h8.708v8.708h-8.708zm0 26.126h8.708v8.708h-8.708zm0 26.125h8.708v8.708h-8.708zm0 26.126h8.708v8.708h-8.708zm0 26.125h8.708v8.708h-8.708zm0 26.125h8.708v8.708h-8.708zm0 26.125h8.708v8.708h-8.708zM107.284 4.447h8.708v8.708h-8.708zm0 26.125h8.708v8.708h-8.708zm0 26.125h8.708v8.708h-8.708zm0 26.126h8.708v8.708h-8.708zm0 26.125h8.708v8.708h-8.708zm0 26.125h8.708v8.708h-8.708zm0 26.125h8.708v8.708h-8.708z"/><path stroke="#3E3E3E" stroke-width=".3" d="M107.284 13.155h8.708v8.708h-8.708zm0 26.125h8.708v8.708h-8.708zm0 26.126h8.708v8.708h-8.708zm0 26.125h8.708v8.708h-8.708zm0 26.125h8.708v8.708h-8.708zm0 26.125h8.708v8.708h-8.708zm0 26.126h8.708v8.708h-8.708zm0-174.169h8.708v8.708h-8.708zm0 26.125h8.708v8.708h-8.708zm0 26.126h8.708v8.708h-8.708zm0 26.125h8.708v8.708h-8.708zm0 26.126h8.708v8.708h-8.708zm0 26.125h8.708v8.708h-8.708zm0 26.125h8.708v8.708h-8.708zm0 26.125h8.708v8.708h-8.708zm8.708-174.168h8.708v8.708h-8.708zm0 26.125h8.708v8.708h-8.708zm0 26.125h8.708v8.708h-8.708zm0 26.126h8.708v8.708h-8.708zm0 26.125h8.708v8.708h-8.708zm0 26.125h8.708v8.708h-8.708zm0 26.125h8.708v8.708h-8.708z"/><path fill="#252525" d="M115.992 13.155h8.708v8.708h-8.708z"/><path stroke="#3E3E3E" stroke-width=".3" d="M115.992 13.155h8.708v8.708h-8.708zm0 26.125h8.708v8.708h-8.708zm0 26.126h8.708v8.708h-8.708zm0 26.125h8.708v8.708h-8.708zm0 26.125h8.708v8.708h-8.708zm0 26.125h8.708v8.708h-8.708zm0 26.126h8.708v8.708h-8.708zm0-174.169h8.708v8.708h-8.708zm0 26.125h8.708v8.708h-8.708zm0 26.126h8.708v8.708h-8.708zm0 26.125h8.708v8.708h-8.708zm0 26.126h8.708v8.708h-8.708zm0 26.125h8.708v8.708h-8.708zm0 26.125h8.708v8.708h-8.708zm0 26.125h8.708v8.708h-8.708zm8.709-174.168h8.708v8.708h-8.708zm0 26.125h8.708v8.708h-8.708zm0 26.125h8.708v8.708h-8.708zm0 26.126h8.708v8.708h-8.708zm0 26.125h8.708v8.708h-8.708zm0 26.125h8.708v8.708h-8.708zm0 26.125h8.708v8.708h-8.708z"/><path stroke="#3E3E3E" stroke-width=".3" d="M124.701 13.155h8.708v8.708h-8.708zm0 26.125h8.708v8.708h-8.708zm0 26.126h8.708v8.708h-8.708zm0 26.125h8.708v8.708h-8.708zm0 26.125h8.708v8.708h-8.708zm0 26.125h8.708v8.708h-8.708zm0 26.126h8.708v8.708h-8.708zm0-174.169h8.708v8.708h-8.708z"/><path fill="#252525" d="M124.701 21.863h8.708v8.708h-8.708z"/><path stroke="#3E3E3E" stroke-width=".3" d="M124.701 21.863h8.708v8.708h-8.708zm0 26.126h8.708v8.708h-8.708zm0 26.125h8.708v8.708h-8.708zm0 26.126h8.708v8.708h-8.708zm0 26.125h8.708v8.708h-8.708zm0 26.125h8.708v8.708h-8.708zm0 26.125h8.708v8.708h-8.708zm8.708-174.168h8.708v8.708h-8.708z"/><path fill="#252525" d="M133.409 30.572h8.708v8.708h-8.708z"/><path stroke="#3E3E3E" stroke-width=".3" d="M133.409 30.572h8.708v8.708h-8.708zm0 26.125h8.708v8.708h-8.708zm0 26.126h8.708v8.708h-8.708zm0 26.125h8.708v8.708h-8.708zm0 26.125h8.708v8.708h-8.708zm0 26.125h8.708v8.708h-8.708zm0-148.043h8.708v8.708h-8.708zm0 26.125h8.708v8.708h-8.708zm0 26.126h8.708v8.708h-8.708zm0 26.125h8.708v8.708h-8.708zm0 26.125h8.708v8.708h-8.708zm0 26.125h8.708v8.708h-8.708zm0 26.126h8.708v8.708h-8.708zm0-174.169h8.708v8.708h-8.708zm0 26.125h8.708v8.708h-8.708zm0 26.126h8.708v8.708h-8.708zm0 26.125h8.708v8.708h-8.708zm0 26.126h8.708v8.708h-8.708zm0 26.125h8.708v8.708h-8.708zm0 26.125h8.708v8.708h-8.708zm0 26.125h8.708v8.708h-8.708zm8.709-174.168h8.708v8.708h-8.708zm0 26.125h8.708v8.708h-8.708zm0 26.125h8.708v8.708h-8.708zm0 26.126h8.708v8.708h-8.708zm0 26.125h8.708v8.708h-8.708zm0 26.125h8.708v8.708h-8.708zm0 26.125h8.708v8.708h-8.708z"/><path stroke="#3E3E3E" stroke-width=".3" d="M142.118 13.155h8.708v8.708h-8.708zm0 26.125h8.708v8.708h-8.708zm0 26.126h8.708v8.708h-8.708zm0 26.125h8.708v8.708h-8.708zm0 26.125h8.708v8.708h-8.708zm0 26.125h8.708v8.708h-8.708zm0 26.126h8.708v8.708h-8.708zm0-174.169h8.708v8.708h-8.708zm0 26.125h8.708v8.708h-8.708zm0 26.126h8.708v8.708h-8.708zm0 26.125h8.708v8.708h-8.708zm0 26.126h8.708v8.708h-8.708zm0 26.125h8.708v8.708h-8.708zm0 26.125h8.708v8.708h-8.708zm0 26.125h8.708v8.708h-8.708zm8.708-174.168h8.708v8.708h-8.708zm0 26.125h8.708v8.708h-8.708zm0 26.125h8.708v8.708h-8.708zm0 26.126h8.708v8.708h-8.708zm0 26.125h8.708v8.708h-8.708zm0 26.125h8.708v8.708h-8.708zm0 26.125h8.708v8.708h-8.708z"/><path stroke="#3E3E3E" stroke-width=".3" d="M150.826 13.155h8.708v8.708h-8.708zm0 26.125h8.708v8.708h-8.708zm0 26.126h8.708v8.708h-8.708zm0 26.125h8.708v8.708h-8.708zm0 26.125h8.708v8.708h-8.708zm0 26.125h8.708v8.708h-8.708zm0 26.126h8.708v8.708h-8.708zm0-174.169h8.708v8.708h-8.708zm0 26.125h8.708v8.708h-8.708zm0 26.126h8.708v8.708h-8.708zm0 26.125h8.708v8.708h-8.708zm0 26.126h8.708v8.708h-8.708zm0 26.125h8.708v8.708h-8.708zm0 26.125h8.708v8.708h-8.708zm0 26.125h8.708v8.708h-8.708zm8.708-174.168h8.708v8.708h-8.708zm0 26.125h8.708v8.708h-8.708zm0 26.125h8.708v8.708h-8.708zm0 26.126h8.708v8.708h-8.708zm0 26.125h8.708v8.708h-8.708zm0 26.125h8.708v8.708h-8.708zm0 26.125h8.708v8.708h-8.708z"/><path stroke="#3E3E3E" stroke-width=".3" d="M159.534 13.155h8.708v8.708h-8.708zm0 26.125h8.708v8.708h-8.708zm0 26.126h8.708v8.708h-8.708zm0 26.125h8.708v8.708h-8.708zm0 26.125h8.708v8.708h-8.708zm0 26.125h8.708v8.708h-8.708zm0 26.126h8.708v8.708h-8.708zm0-174.169h8.708v8.708h-8.708zm0 26.125h8.708v8.708h-8.708zm0 26.126h8.708v8.708h-8.708zm0 26.125h8.708v8.708h-8.708zm0 26.126h8.708v8.708h-8.708z"/><path fill="#252525" d="M159.534 126.365h8.708v8.708h-8.708z"/><path stroke="#3E3E3E" stroke-width=".3" d="M159.534 126.365h8.708v8.708h-8.708zm0 26.125h8.708v8.708h-8.708zm0 26.125h8.708v8.708h-8.708zm8.709-174.168h8.708v8.708h-8.708zm0 26.125h8.708v8.708h-8.708zm0 26.125h8.708v8.708h-8.708zm0 26.126h8.708v8.708h-8.708zm0 26.125h8.708v8.708h-8.708zm0 26.125h8.708v8.708h-8.708zm0 26.125h8.708v8.708h-8.708z"/><path stroke="#3E3E3E" stroke-width=".3" d="M168.243 13.155h8.708v8.708h-8.708zm0 26.125h8.708v8.708h-8.708z"/><path fill="#252525" d="M168.243 65.406h8.708v8.708h-8.708z"/><path stroke="#3E3E3E" stroke-width=".3" d="M168.243 65.406h8.708v8.708h-8.708zm0 26.125h8.708v8.708h-8.708zm0 26.125h8.708v8.708h-8.708zm0 26.125h8.708v8.708h-8.708zm0 26.126h8.708v8.708h-8.708zm0-174.169h8.708v8.708h-8.708zm0 26.125h8.708v8.708h-8.708zm0 26.126h8.708v8.708h-8.708zm0 26.125h8.708v8.708h-8.708zm0 26.126h8.708v8.708h-8.708zm0 26.125h8.708v8.708h-8.708zm0 26.125h8.708v8.708h-8.708zm0 26.125h8.708v8.708h-8.708zm8.708-174.168h8.708v8.708h-8.708zm0 26.125h8.708v8.708h-8.708zm0 26.125h8.708v8.708h-8.708zm0 26.126h8.708v8.708h-8.708zm0 26.125h8.708v8.708h-8.708zm0 26.125h8.708v8.708h-8.708zm0 26.125h8.708v8.708h-8.708z"/><path stroke="#3E3E3E" stroke-width=".3" d="M176.951 13.155h8.708v8.708h-8.708zm0 26.125h8.708v8.708h-8.708zm0 26.126h8.708v8.708h-8.708zm0 26.125h8.708v8.708h-8.708zm0 26.125h8.708v8.708h-8.708zm0 26.125h8.708v8.708h-8.708zm0 26.126h8.708v8.708h-8.708zm0-174.169h8.708v8.708h-8.708zm0 26.125h8.708v8.708h-8.708zm0 26.126h8.708v8.708h-8.708zm0 26.125h8.708v8.708h-8.708zm0 26.126h8.708v8.708h-8.708zm0 26.125h8.708v8.708h-8.708zm0 26.125h8.708v8.708h-8.708zm0 26.125h8.708v8.708h-8.708zM185.66 4.447h8.708v8.708h-8.708zm0 26.125h8.708v8.708h-8.708zm0 26.125h8.708v8.708h-8.708zm0 26.126h8.708v8.708h-8.708zm0 26.125h8.708v8.708h-8.708zm0 26.125h8.708v8.708h-8.708zm0 26.125h8.708v8.708h-8.708z"/><path stroke="#3E3E3E" stroke-width=".3" d="M185.66 13.155h8.708v8.708h-8.708zm0 26.125h8.708v8.708h-8.708zm0 26.126h8.708v8.708h-8.708zm0 26.125h8.708v8.708h-8.708zm0 26.125h8.708v8.708h-8.708zm0 26.125h8.708v8.708h-8.708zm0 26.126h8.708v8.708h-8.708zm0-174.169h8.708v8.708h-8.708zm0 26.125h8.708v8.708h-8.708zm0 26.126h8.708v8.708h-8.708zm0 26.125h8.708v8.708h-8.708zm0 26.126h8.708v8.708h-8.708zm0 26.125h8.708v8.708h-8.708zm0 26.125h8.708v8.708h-8.708zm0 26.125h8.708v8.708h-8.708zm8.708-174.168h8.708v8.708h-8.708zm0 26.125h8.708v8.708h-8.708zm0 26.125h8.708v8.708h-8.708zm0 26.126h8.708v8.708h-8.708zm0 26.125h8.708v8.708h-8.708zm0 26.125h8.708v8.708h-8.708zm0 26.125h8.708v8.708h-8.708z"/><path fill="#252525" d="M194.368 13.155h8.708v8.708h-8.708z"/><path stroke="#3E3E3E" stroke-width=".3" d="M194.368 13.155h8.708v8.708h-8.708zm0 26.125h8.708v8.708h-8.708zm0 26.126h8.708v8.708h-8.708zm0 26.125h8.708v8.708h-8.708zm0 26.125h8.708v8.708h-8.708zm0 26.125h8.708v8.708h-8.708zm0 26.126h8.708v8.708h-8.708zm0-174.169h8.708v8.708h-8.708zm0 26.125h8.708v8.708h-8.708z"/><path fill="#252525" d="M194.368 47.989h8.708v8.708h-8.708z"/><path stroke="#3E3E3E" stroke-width=".3" d="M194.368 47.989h8.708v8.708h-8.708zm0 26.125h8.708v8.708h-8.708zm0 26.126h8.708v8.708h-8.708zm0 26.125h8.708v8.708h-8.708zm0 26.125h8.708v8.708h-8.708zm0 26.125h8.708v8.708h-8.708zm8.709-174.168h8.708v8.708h-8.708zm0 26.125h8.708v8.708h-8.708zm0 26.125h8.708v8.708h-8.708zm0 26.126h8.708v8.708h-8.708zm0 26.125h8.708v8.708h-8.708zm0 26.125h8.708v8.708h-8.708zm0 26.125h8.708v8.708h-8.708z"/><path stroke="#3E3E3E" stroke-width=".3" d="M203.077 13.155h8.708v8.708h-8.708zm0 26.125h8.708v8.708h-8.708zm0 26.126h8.708v8.708h-8.708z"/><path fill="#252525" d="M203.077 91.531h8.708v8.708h-8.708z"/><path stroke="#3E3E3E" stroke-width=".3" d="M203.077 91.531h8.708v8.708h-8.708zm0 26.125h8.708v8.708h-8.708zm0 26.125h8.708v8.708h-8.708zm0 26.126h8.708v8.708h-8.708zm0-174.169h8.708v8.708h-8.708zm0 26.125h8.708v8.708h-8.708zm0 26.126h8.708v8.708h-8.708zm0 26.125h8.708v8.708h-8.708zm0 26.126h8.708v8.708h-8.708zm0 26.125h8.708v8.708h-8.708zm0 26.125h8.708v8.708h-8.708zm0 26.125h8.708v8.708h-8.708zm8.708-174.168h8.708v8.708h-8.708zm0 26.125h8.708v8.708h-8.708zm0 26.125h8.708v8.708h-8.708zm0 26.126h8.708v8.708h-8.708zm0 26.125h8.708v8.708h-8.708zm0 26.125h8.708v8.708h-8.708zm0 26.125h8.708v8.708h-8.708z"/><path stroke="#3E3E3E" stroke-width=".3" d="M211.785 13.155h8.708v8.708h-8.708zm0 26.125h8.708v8.708h-8.708zm0 26.126h8.708v8.708h-8.708zm0 26.125h8.708v8.708h-8.708zm0 26.125h8.708v8.708h-8.708zm0 26.125h8.708v8.708h-8.708zm0 26.126h8.708v8.708h-8.708zm0-174.169h8.708v8.708h-8.708z"/><path fill="#252525" d="M211.785 21.863h8.708v8.708h-8.708z"/><path stroke="#3E3E3E" stroke-width=".3" d="M211.785 21.863h8.708v8.708h-8.708zm0 26.126h8.708v8.708h-8.708zm0 26.125h8.708v8.708h-8.708zm0 26.126h8.708v8.708h-8.708zm0 26.125h8.708v8.708h-8.708zm0 26.125h8.708v8.708h-8.708zm0 26.125h8.708v8.708h-8.708zm8.708-174.168h8.708v8.708h-8.708zm0 26.125h8.708v8.708h-8.708zm0 26.125h8.708v8.708h-8.708zm0 26.126h8.708v8.708h-8.708zm0 26.125h8.708v8.708h-8.708zm0 26.125h8.708v8.708h-8.708zm0 26.125h8.708v8.708h-8.708z"/><path stroke="#3E3E3E" stroke-width=".3" d="M220.493 13.155h8.708v8.708h-8.708zm0 26.125h8.708v8.708h-8.708zm0 26.126h8.708v8.708h-8.708zm0 26.125h8.708v8.708h-8.708zm0 26.125h8.708v8.708h-8.708zm0 26.125h8.708v8.708h-8.708zm0 26.126h8.708v8.708h-8.708zm0-174.169h8.708v8.708h-8.708zm0 26.125h8.708v8.708h-8.708zm0 26.126h8.708v8.708h-8.708zm0 26.125h8.708v8.708h-8.708zm0 26.126h8.708v8.708h-8.708zm0 26.125h8.708v8.708h-8.708zm0 26.125h8.708v8.708h-8.708zm0 26.125h8.708v8.708h-8.708zm8.709-174.168h8.708v8.708h-8.708zm0 26.125h8.708v8.708h-8.708zm0 26.125h8.708v8.708h-8.708zm0 26.126h8.708v8.708h-8.708zm0 26.125h8.708v8.708h-8.708zm0 26.125h8.708v8.708h-8.708zm0 26.125h8.708v8.708h-8.708z"/><path stroke="#3E3E3E" stroke-width=".3" d="M229.202 13.155h8.708v8.708h-8.708zm0 26.125h8.708v8.708h-8.708zm0 26.126h8.708v8.708h-8.708zm0 26.125h8.708v8.708h-8.708zm0 26.125h8.708v8.708h-8.708zm0 26.125h8.708v8.708h-8.708zm0 26.126h8.708v8.708h-8.708zm0-174.169h8.708v8.708h-8.708zm0 26.125h8.708v8.708h-8.708zm0 26.126h8.708v8.708h-8.708zm0 26.125h8.708v8.708h-8.708zm0 26.126h8.708v8.708h-8.708zm0 26.125h8.708v8.708h-8.708zm0 26.125h8.708v8.708h-8.708zm0 26.125h8.708v8.708h-8.708zM237.91 4.447h8.708v8.708h-8.708zm0 26.125h8.708v8.708h-8.708zm0 26.125h8.708v8.708h-8.708zm0 26.126h8.708v8.708h-8.708zm0 26.125h8.708v8.708h-8.708zm0 26.125h8.708v8.708h-8.708zm0 26.125h8.708v8.708h-8.708z"/><path stroke="#3E3E3E" stroke-width=".3" d="M237.91 13.155h8.708v8.708h-8.708zm0 26.125h8.708v8.708h-8.708zm0 26.126h8.708v8.708h-8.708zm0 26.125h8.708v8.708h-8.708zm0 26.125h8.708v8.708h-8.708zm0 26.125h8.708v8.708h-8.708zm0 26.126h8.708v8.708h-8.708zm0-174.169h8.708v8.708h-8.708zm0 26.125h8.708v8.708h-8.708zm0 26.126h8.708v8.708h-8.708zm0 26.125h8.708v8.708h-8.708zm0 26.126h8.708v8.708h-8.708zm0 26.125h8.708v8.708h-8.708zm0 26.125h8.708v8.708h-8.708zm0 26.125h8.708v8.708h-8.708z"/><circle cx="-90.308" cy="181.918" r="187.231" fill="url(#c)" style="mix-blend-mode:soft-light" filter="url(#d)"/><circle cx="182.356" cy="154.292" r="95.943" fill="#0A0A0A" filter="url(#e)"/><circle cx="75.453" cy="-76.332" r="95.943" fill="#0A0A0A" style="mix-blend-mode:hard-light" filter="url(#f)"/><circle cx="322.292" cy="-74.23" r="187.231" fill="url(#g)" fill-opacity=".6" style="mix-blend-mode:soft-light" filter="url(#h)"/><path d="M115.952 77.914a38.697 38.697 0 0 0-4.439 8.166H92.461c-9.02 0-16.334 7.314-16.334 16.334v57.166c0 9.021 7.313 16.334 16.334 16.334h57.166c9.021 0 16.334-7.313 16.334-16.334v-25.038a38.93 38.93 0 0 0 8.166-5.884v30.922c0 13.531-10.969 24.5-24.5 24.5H92.461c-13.53 0-24.5-10.969-24.5-24.5v-57.166c0-13.53 10.97-24.5 24.5-24.5h23.491z" fill="#FCFCFC"/><path d="M175.659 93.044c-4.719-2.03-8.848-4.818-12.388-8.356-3.539-3.54-6.326-7.67-8.357-12.389a36.65 36.65 0 0 1-1.887-5.573 1.402 1.402 0 0 0-1.358-1.062c-.642 0-1.201.439-1.358 1.062a36.717 36.717 0 0 1-1.887 5.573c-2.031 4.72-4.818 8.85-8.356 12.389-3.539 3.538-7.67 6.325-12.389 8.356a36.702 36.702 0 0 1-5.573 1.887 1.402 1.402 0 0 0-1.062 1.358c0 .642.439 1.201 1.062 1.358a36.765 36.765 0 0 1 5.573 1.887c4.719 2.031 8.848 4.818 12.389 8.356 3.54 3.539 6.325 7.67 8.356 12.389a36.625 36.625 0 0 1 1.887 5.573 1.403 1.403 0 0 0 1.358 1.062c.642 0 1.201-.439 1.358-1.062a36.7 36.7 0 0 1 1.887-5.573c2.031-4.719 4.818-8.848 8.357-12.389 3.538-3.538 7.669-6.325 12.388-8.356a36.69 36.69 0 0 1 5.573-1.887 1.402 1.402 0 0 0 1.062-1.358c0-.642-.439-1.201-1.062-1.358a36.777 36.777 0 0 1-5.573-1.886z" fill="#FCFCFC"/></g></g><defs><filter id="d" x="-368.827" y="-96.601" width="557.04" height="557.04" filterUnits="userSpaceOnUse" color-interpolation-filters="sRGB"><feFlood flood-opacity="0" result="BackgroundImageFix"/><feBlend in="SourceGraphic" in2="BackgroundImageFix" result="shape"/><feGaussianBlur stdDeviation="45.644" result="effect1_foregroundBlur_1667_29050"/></filter><filter id="e" x="-4.875" y="-32.94" width="374.463" height="374.463" filterUnits="userSpaceOnUse" color-interpolation-filters="sRGB"><feFlood flood-opacity="0" result="BackgroundImageFix"/><feBlend in="SourceGraphic" in2="BackgroundImageFix" result="shape"/><feGaussianBlur stdDeviation="45.644" result="effect1_foregroundBlur_1667_29050"/></filter><filter id="f" x="-111.778" y="-263.563" width="374.463" height="374.463" filterUnits="userSpaceOnUse" color-interpolation-filters="sRGB"><feFlood flood-opacity="0" result="BackgroundImageFix"/><feBlend in="SourceGraphic" in2="BackgroundImageFix" result="shape"/><feGaussianBlur stdDeviation="45.644" result="effect1_foregroundBlur_1667_29050"/></filter><filter id="h" x="43.772" y="-352.749" width="557.04" height="557.04" filterUnits="userSpaceOnUse" color-interpolation-filters="sRGB"><feFlood flood-opacity="0" result="BackgroundImageFix"/><feBlend in="SourceGraphic" in2="BackgroundImageFix" result="shape"/><feGaussianBlur stdDeviation="45.644" result="effect1_foregroundBlur_1667_29050"/></filter><linearGradient id="c" x1="-238.351" y1="196.182" x2="36.415" y2="46.938" gradientUnits="userSpaceOnUse"><stop stop-color="#0A0A0A"/><stop offset="1" stop-color="#191919"/></linearGradient><linearGradient id="g" x1="174.249" y1="-59.966" x2="449.015" y2="-209.21" gradientUnits="userSpaceOnUse"><stop stop-color="#0A0A0A"/><stop offset="1" stop-color="#191919"/></linearGradient><clipPath id="a"><path fill="#fff" d="M0 0h250v250H0z"/></clipPath><clipPath id="b"><path fill="#fff" d="M0 0h250v250H0z"/></clipPath></defs></svg>